#!OML:ASF H:\Terrain\Patient Classification 1\Walking\steve\steve.ASF
:FULLY-SPECIFIED
:DEGREES
215
root 7.58774 15.8892 7.27996 6.1825 2.69062 4.24081
lowerback -0.236839 -0.103432 -2.73959
upperback -2.72907 -0.150991 0.969109
thorax -2.66173 0.000941758 2.53567
lowerneck -10.8769 -0.246691 -1.19843
upperneck 13.661 0.423907 -3.57859
head 5.93512 -0.129976 -0.899451
rclavicle 1.98163e-015 0
rhumerus -82.3376 -29.7996 -30.3291
rradius 13.8384
rwrist 30.6666
rhand -13.9969 -40.7366
rfingers 7.12502
rthumb 12.1321 -70.3648
lclavicle 1.98163e-015 0
lhumerus -14.3361 -11.9073 87.847
lradius 60.9685
lwrist 27.0519
lhand -29.5493 -18.1612
lfingers 7.12502
lthumb -2.88218 11.7991
rfemur -43.5501 1.46067 18.084
rtibia 33.3449
rfoot -5.68881 1.87171
rtoes -2.28033
lfemur 18.7231 -0.115447 -26.567
ltibia 12.7759
lfoot 2.78222 -7.41902
ltoes -6.18428
216
root 7.59807 15.879 7.53162 6.18359 2.60087 3.58991
lowerback -0.364574 -0.122469 -1.70358
upperback -2.81392 -0.155558 1.22184
thorax -2.67638 -0.021183 2.21359
lowerneck -10.6104 -0.0211932 -0.933525
upperneck 13.4581 0.758229 -4.14942
head 5.83341 0.00904431 -1.09419
rclavicle -6.02566e-015 6.36111e-015
rhumerus -81.7441 -29.5956 -30.7662
rradius 13.7489
rwrist 30.8623
rhand -13.8609 -40.0112
rfingers 7.12502
rthumb 12.2632 -69.6316
lclavicle -6.02566e-015 6.36111e-015
lhumerus -15.6408 -11.3745 88.1562
lradius 61.7647
lwrist 27.0872
lhand -30.1065 -18.4326
lfingers 7.12502
lthumb -3.42029 11.5198
rfemur -43.3381 1.79236 18.6423
rtibia 34.6095
rfoot -5.13849 1.98808
rtoes 8.81618
lfemur 16.8722 -0.757575 -26.0068
ltibia 17.4413
lfoot 4.03326 -6.12969
ltoes 3.01206
217
root 7.61484 15.8785 7.77273 5.95682 2.37003 2.94808
lowerback -0.217224 -0.112794 -0.63571
upperback -2.78529 -0.124377 1.47314
thorax -2.73156 -0.0273253 1.87211
lowerneck -10.5295 0.178458 -0.826101
upperneck 13.3648 1.06778 -4.56046
head 5.79903 0.136846 -1.21596
rclavicle -4.85314e-015 -8.74653e-015
rhumerus -80.8936 -29.5272 -31.348
rradius 13.7492
rwrist 30.9951
rhand -13.387 -40.4954
rfingers 7.12502
rthumb 12.7201 -70.088
lclavicle -4.85314e-015 -8.74653e-015
lhumerus -16.66 -11.2155 88.3458
lradius 62.2383
lwrist 27.507
lhand -30.8321 -18.703
lfingers 7.12502
lthumb -4.12103 11.2369
rfemur -42.9903 1.66108 19.4781
rtibia 36.1156
rfoot -4.9949 2.29704
rtoes 10.9053
lfemur 15.4097 -0.847959 -25.4103
ltibia 21.5375
lfoot 5.71353 -3.93541
ltoes 8.2905
218
root 7.62297 15.8747 8.0063 5.77475 2.00073 3.03876
lowerback -0.012687 -0.0276314 -0.508262
upperback -2.68535 -0.0073719 1.56477
thorax -2.74812 0.0288092 1.89238
lowerneck -10.8284 0.258665 -1.06905
upperneck 13.3598 1.23886 -4.6499
head 5.85256 0.197165 -1.1908
rclavicle 1.75396e-014 3.97569e-015
rhumerus -80.4909 -30.1627 -30.7175
rradius 13.6828
rwrist 31.8077
rhand -13.1157 -41.2917
rfingers 7.12502
rthumb 12.9817 -70.8678
lclavicle 1.75396e-014 3.97569e-015
lhumerus -17.4699 -11.3869 88.6465
lradius 62.6516
lwrist 28.0549
lhand -31.1636 -18.6179
lfingers 7.12502
lthumb -4.44114 11.3156
rfemur -42.9797 1.40009 19.6872
rtibia 37.9175
rfoot -5.35765 2.80433
rtoes 5.25155
lfemur 13.971 -0.471448 -25.4831
ltibia 25.1242
lfoot 8.24424 -1.03001
ltoes 11.5922
219
root 7.6283 15.879 8.24892 5.50615 1.72328 3.32986
lowerback 0.294504 0.0461243 -0.607046
upperback -2.60805 0.0889893 1.55154
thorax -2.84531 0.0792347 1.93198
lowerneck -11.0506 0.336364 -0.999227
upperneck 13.3323 1.37706 -4.9109
head 5.88748 0.245598 -1.27345
rclavicle -7.68738e-015 5.56597e-015
rhumerus -79.3305 -30.3599 -31.8756
rradius 13.6962
rwrist 30.9888
rhand -13.3149 -41.5402
rfingers 7.12502
rthumb 12.7897 -71.1284
lclavicle -7.68738e-015 5.56597e-015
lhumerus -18.5868 -11.2597 88.9906
lradius 63.1106
lwrist 28.0678
lhand -31.061 -18.3729
lfingers 7.12502
lthumb -4.34203 11.5625
rfemur -42.8018 1.08886 19.6706
rtibia 39.6887
rfoot -5.74574 3.64019
rtoes 2.78749
lfemur 12.6428 -0.118382 -25.6846
ltibia 28.5634
lfoot 11.5829 2.04826
ltoes 15.6828
220
root 7.63511 15.8937 8.48428 5.20254 1.5716 3.42133
lowerback 0.796437 0.0820666 -0.47462
upperback -2.62731 0.141488 1.55792
thorax -3.14996 0.10431 1.86291
lowerneck -11.112 0.394871 -0.645817
upperneck 13.2959 1.47026 -5.40385
head 5.89465 0.271104 -1.47958
rclavicle 2.27872e-014 1.59028e-015
rhumerus -77.4578 -29.8533 -34.9033
rradius 13.9773
rwrist 28.6536
rhand -13.9037 -41.4633
rfingers 7.12502
rthumb 12.222 -71.0862
lclavicle 2.27872e-014 1.59028e-015
lhumerus -19.926 -11.0756 89.3014
lradius 63.5151
lwrist 27.927
lhand -30.9897 -18.5125
lfingers 7.12502
lthumb -4.27324 11.4244
rfemur -42.3305 0.794279 19.8173
rtibia 41.1548
rfoot -5.8634 4.58957
rtoes 3.78486
lfemur 11.2861 0.0179204 -25.6891
ltibia 32.0321
lfoot 13.8237 3.95615
ltoes 15.1354
221
root 7.635 15.9106 8.70424 5.04513 1.30838 3.04776
lowerback 1.20262 0.16281 -0.069874
upperback -2.66858 0.269671 1.77463
thorax -3.42605 0.162491 1.85411
lowerneck -11.3391 0.465514 -0.621161
upperneck 13.4381 1.60672 -5.60764
head 5.98445 0.316271 -1.53782
rclavicle 1.3508e-014 -6.36111e-015
rhumerus -76.6556 -30.1171 -35.3798
rradius 14.0451
rwrist 28.6808
rhand -14.3388 -40.532
rfingers 7.12502
rthumb 11.8024 -70.1794
lclavicle 1.3508e-014 -6.36111e-015
lhumerus -21.1361 -10.9535 89.7904
lradius 63.6601
lwrist 27.8908
lhand -31.2722 -18.4961
lfingers 7.12502
lthumb -4.54594 11.4352
rfemur -41.8627 0.962449 20.4283
rtibia 42.2522
rfoot -6.3849 5.05562
rtoes 3.01624
lfemur 9.67383 0.357958 -25.1158
ltibia 35.4697
lfoot 16.3115 4.88944
ltoes 12.4984
222
root 7.62922 15.9354 8.92442 4.94609 0.959573 2.22282
lowerback 1.30664 0.280109 0.696791
upperback -2.5747 0.45885 2.10523
thorax -3.39123 0.240871 1.75624
lowerneck -11.3808 0.567599 -0.773775
upperneck 13.298 1.74669 -5.48123
head 5.94912 0.388799 -1.46002
rclavicle -1.64712e-014 -1.59028e-015
rhumerus -75.9249 -30.8375 -35.3252
rradius 14.0323
rwrist 29.5265
rhand -14.3814 -40.4392
rfingers 7.12502
rthumb 11.7613 -70.089
lclavicle -1.64712e-014 -1.59028e-015
lhumerus -22.0365 -10.8669 90.2469
lradius 63.4931
lwrist 27.9228
lhand -31.2253 -18.0626
lfingers 7.12502
lthumb -4.50068 11.8696
rfemur -41.2419 1.42013 21.5074
rtibia 42.9935
rfoot -7.28045 5.01542
rtoes 3.58013
lfemur 8.00394 0.837033 -23.9854
ltibia 38.9007
lfoot 18.3363 6.18614
ltoes 11.092
223
root 7.62687 15.9709 9.16243 4.6173 0.804698 2.01861
lowerback 1.33204 0.362573 0.949472
upperback -2.32939 0.572689 2.16159
thorax -3.15322 0.291287 1.66734
lowerneck -11.0652 0.584947 -0.625806
upperneck 12.7296 1.71362 -5.53464
head 5.71657 0.394119 -1.50103
rclavicle 6.12505e-015 7.15625e-015
rhumerus -74.9203 -31.5206 -36.0013
rradius 14.0599
rwrist 29.737
rhand -14.1792 -40.9853
rfingers 7.12502
rthumb 11.9564 -70.6238
lclavicle 6.12505e-015 7.15625e-015
lhumerus -22.8321 -11.0255 90.5255
lradius 63.3296
lwrist 28.2995
lhand -30.6055 -17.7102
lfingers 7.12502
lthumb -3.90221 12.2338
rfemur -40.1011 1.42959 21.9022
rtibia 43.5006
rfoot -8.18019 5.21334
rtoes 4.73087
lfemur 6.64783 0.97628 -23.6446
ltibia 42.2435
lfoot 19.7686 8.80267
ltoes 9.73459
224
root 7.62069 16.0026 9.39885 4.23422 0.75332 2.11297
lowerback 1.5636 0.434031 0.88034
upperback -2.20918 0.667391 2.12514
thorax -3.16221 0.339436 1.66327
lowerneck -10.7692 0.530627 -0.581972
upperneck 12.4189 1.59968 -5.47343
head 5.56506 0.356937 -1.49654
rclavicle -1.60332e-014 -1.11319e-014
rhumerus -73.6028 -31.638 -37.7634
rradius 14.2951
rwrist 28.5542
rhand -14.1604 -40.3465
rfingers 7.12502
rthumb 11.9744 -69.984
lclavicle -1.60332e-014 -1.11319e-014
lhumerus -23.765 -11.219 90.878
lradius 63.1194
lwrist 28.8118
lhand -30.1243 -17.8463
lfingers 7.12502
lthumb -3.43746 12.1057
rfemur -38.8394 1.32395 21.9285
rtibia 43.8255
rfoot -8.96974 5.81332
rtoes 3.57533
lfemur 5.3969 1.10841 -23.6307
ltibia 45.3849
lfoot 19.8299 12.3983
ltoes 9.70917
225
root 7.61174 16.0294 9.61965 4.11618 0.67797 1.83623
lowerback 1.71277 0.562723 1.18572
upperback -2.22232 0.853968 2.16082
thorax -3.26063 0.425548 1.51938
lowerneck -10.5386 0.431243 -0.879822
upperneck 12.3102 1.42804 -4.95006
head 5.48115 0.302786 -1.29628
rclavicle -1.58717e-015 -5.56597e-015
rhumerus -71.2885 -30.8681 -41.7204
rradius 14.8405
rwrist 25.2609
rhand -14.6985 -39.9347
rfingers 7.12502
rthumb 11.4556 -69.6017
lclavicle -1.58717e-015 -5.56597e-015
lhumerus -24.5562 -11.5581 91.3408
lradius 62.4909
lwrist 29.0494
lhand -29.8632 -18.0329
lfingers 7.12502
lthumb -3.18535 11.9231
rfemur -37.802 1.33427 22.3596
rtibia 43.9828
rfoot -9.81441 6.38751
rtoes 2.60553
lfemur 3.81027 1.47043 -23.1019
ltibia 48.3707
lfoot 18.7232 15.1373
ltoes 10.7711
